<svg width="38" height="53" fill="none" xmlns="http://www.w3.org/2000/svg"><g filter="url(#a)"><path d="M29.9 0H7.954A3.961 3.961 0 0 0 4 3.955v37.09A3.961 3.961 0 0 0 7.954 45H29.9a3.961 3.961 0 0 0 3.956-3.955V3.955A3.961 3.961 0 0 0 29.9 0zM7.954 2.637H29.9c.73 0 1.319.589 1.319 1.318v27.861H6.636V3.956c0-.73.589-1.32 1.318-1.32zM29.9 42.363H7.954c-.73 0-1.318-.589-1.318-1.318v-6.592h24.583v6.592c0 .73-.598 1.318-1.319 1.318z" fill="#5A1404"/><path d="M17.605 37.09h2.636v2.637h-2.636V37.09z" fill="#5A1404"/><path d="M26.727 12.665h-1.775c.114-.351.176-.73.176-1.125a3.766 3.766 0 0 0-3.762-3.762c-.931 0-1.784.343-2.443.906a3.754 3.754 0 0 0-2.443-.906 3.766 3.766 0 0 0-3.762 3.762c0 .387.061.765.176 1.125h-1.776v14.01h15.61v-14.01zm-5.36-2.25c.614 0 1.124.501 1.124 1.125s-.5 1.125-1.125 1.125h-1.125V11.54c0-.624.51-1.125 1.125-1.125zm-6.004 1.125c0-.615.501-1.125 1.125-1.125s1.125.501 1.125 1.125v1.125h-1.125c-.624 0-1.125-.51-1.125-1.125zm-1.608 3.762h3.85v8.736h-3.85v-8.736zm10.336 8.736h-3.85v-8.736h3.85v8.736z" fill="$red"/></g><defs><filter id="a" x="-.001" y="0" width="37.856" height="53" filterUnits="userSpaceOnUse" color-interpolation-filters="sRGB"><feFlood flood-opacity="0" result="BackgroundImageFix"/><feColorMatrix in="SourceAlpha" values="0 0 0 0 0 0 0 0 0 0 0 0 0 0 0 0 0 0 127 0" result="hardAlpha"/><feOffset dy="4"/><feGaussianBlur stdDeviation="2"/><feComposite in2="hardAlpha" operator="out"/><feColorMatrix values="0 0 0 0 0 0 0 0 0 0 0 0 0 0 0 0 0 0 0.25 0"/><feBlend in2="BackgroundImageFix" result="effect1_dropShadow_213_681"/><feBlend in="SourceGraphic" in2="effect1_dropShadow_213_681" result="shape"/></filter></defs></svg>