<svg width="74" height="45" fill="none" xmlns="http://www.w3.org/2000/svg"><path d="M67.294.028H10.406c-1.153 0-2.178.897-2.178 2.178V41.669h61.244V2.078c0-1.153-1.025-2.05-2.178-2.05z" fill="#571D00"/><path d="M72.572 41.54H5a1 1 0 0 0-1 1V44a1 1 0 0 0 1 1h67.572a1 1 0 0 0 1-1v-1.46a1 1 0 0 0-1-1z" fill="#571D00"/><path d="M66 3H12a1 1 0 0 0-1 1v34a1 1 0 0 0 1 1h54a1 1 0 0 0 1-1V4a1 1 0 0 0-1-1z" fill="#FFD300"/><path d="M53.328 17.581H22.962v8.072h30.366v-8.072z" fill="#E30613"/><path d="m45.128 21.04 12.557 5.254-3.844 1.793 3.844 3.332-2.306 2.306-3.716-3.844-1.538 3.844-4.997-12.685z" fill="#fff" stroke="#571D00" stroke-width=".5" stroke-miterlimit="10"/><path d="M17.65 6H0v28h17.65V6z" fill="#fff"/><path d="M2.124 9.052h9.421M2.123 11.972h9.422M2.123 14.758H9.82M2.123 17.678h9.422M2.123 20.597h5.308M2.123 23.517h9.422M2.123 26.436H9.82M2.123 31.08h3.052M13.27 9.052h2.256M13.27 11.972h2.256M13.27 14.758h2.256M13.27 17.678h2.256M13.27 20.597h2.256M13.27 23.517h2.256M13.27 26.436h2.256M13.27 31.08h2.256" stroke="#571D00" stroke-width=".5" stroke-miterlimit="10"/></svg>