<svg width="169" height="26" fill="none" xmlns="http://www.w3.org/2000/svg"><path d="M136.042 12.425c-3.441-6.112-6.021-9.268-8.602-12.022h-3.904v24.784h4.169v-18c2.845 3.492 7.94 11.82 8.535 18.067h4.037V.47h-4.169v11.955h-.066zM156.422 12.425C152.981 6.313 150.4 3.157 147.82.403h-3.904v24.784h4.169v-18c2.845 3.492 7.94 11.82 8.535 18.067h4.037V.47h-4.169v11.955h-.066zM77.417 7.254c0-3.963-2.78-6.784-8.073-6.784h-6.947v24.784h4.433V16.79a45.771 45.771 0 0 0 2.845-1.007l3.904 9.403h5.161L73.579 13.97c2.58-1.612 3.838-3.56 3.838-6.716zM66.83 4.634h2.117c2.647 0 4.036 1.008 4.036 2.821 0 3.09-3.507 4.232-6.153 5.037V4.635zM9.33 0C3.308 0 0 5.306 0 12.828c0 7.59 3.308 12.829 9.33 12.829 6.087 0 9.396-5.24 9.396-12.829C18.726 5.306 15.417 0 9.33 0zm0 21.425c-3.64 0-4.764-4.03-4.764-8.597 0-4.567 1.124-8.597 4.764-8.597 3.639 0 4.83 4.03 4.83 8.597 0 4.567-1.191 8.597-4.83 8.597zM25.674.47H21.24v24.784h10.918V20.82h-6.485V.47zM168.729.47h-4.433v24.784h4.433V.47zM30.768.47v4.433h4.566v20.35h4.433V4.904h4.5V.47H30.767zM95.878.47c-1.654 4.097-3.11 7.724-4.83 14.306-1.72-6.65-3.11-10.209-4.83-14.306h-5.294l-1.059 24.784h4.169l.794-17.933c1.72 4.5 3.44 10.276 4.036 13.298h4.301c.596-2.955 2.316-8.73 4.036-13.298l.794 17.933h4.169L101.105.47h-5.227zM109.244 19.008h6.947l1.588 6.246h4.434L115.596.47h-5.624l-6.683 24.784h4.433l1.522-6.247zm3.507-13.836 2.514 9.873h-4.963l2.449-9.873zM46.318.47v24.784h13.366V20.82H50.75v-6.045h7.543v-4.365h-7.543V4.903h8.933V.47H46.318z" fill="#5A1404"/></svg>